<svg width="391" height="98" viewBox="0 0 391 98" fill="none" xmlns="http://www.w3.org/2000/svg">
<path d="M4.24391 88.6924C4.24391 91.8124 4.24391 96.4924 9.52391 96.4924C11.9239 96.4924 12.8839 95.1724 13.7239 93.7324C14.5639 92.2924 15.4039 91.0924 17.4439 91.0924C18.7639 91.0924 19.4839 91.4524 25.2439 94.2124C29.8039 96.3724 38.3239 97.8124 45.5239 97.8124C72.0439 97.8124 87.1639 82.5724 87.1639 56.2924C87.1639 35.5324 74.2039 18.0124 52.2439 18.0124C44.5639 18.0124 41.5639 20.2924 39.6439 20.2924C37.9639 20.2924 37.9639 18.3724 37.9639 17.0524C37.9639 13.0924 38.3239 9.25236 38.3239 5.29236C38.3239 2.89236 37.1239 0.852362 34.4839 0.852362C32.6839 0.852362 27.0439 1.69236 21.5239 1.69236C16.6039 1.69236 10.9639 0.852362 5.92391 0.852362C3.64391 0.852362 0.643906 1.69236 0.643906 5.89236C0.643906 8.17236 1.48391 9.13236 2.68391 11.0524C4.00391 13.2124 4.24391 13.3324 4.24391 21.7324V88.6924ZM38.0839 56.0524C38.0839 49.6924 38.0839 44.0524 43.9639 44.0524C50.6839 44.0524 51.5239 53.2924 51.5239 58.0924C51.5239 62.7724 50.6839 71.2924 44.3239 71.2924C39.1639 71.2924 38.0839 66.2524 38.0839 62.0524V56.0524ZM95.2986 75.1324C95.2986 82.4524 95.0586 83.7724 93.7386 85.9324C91.9386 88.8124 91.6986 89.2924 91.6986 90.9724C91.6986 92.2924 92.1786 96.0124 96.6186 96.0124C99.9786 96.0124 107.059 95.1724 112.579 95.1724C119.539 95.1724 125.419 96.0124 127.939 96.0124C131.899 96.0124 132.739 92.7724 132.739 91.0924C132.739 89.1724 132.259 88.5724 130.699 85.9324C129.619 84.1324 129.139 83.4124 129.139 75.1324V7.69236C129.139 5.29236 129.139 0.852362 125.179 0.852362C123.619 0.852362 117.859 1.69236 111.979 1.69236C106.939 1.69236 102.019 0.852362 96.9786 0.852362C95.0586 0.852362 91.6986 1.45236 91.6986 5.89236C91.6986 7.69236 91.9386 8.17236 93.7386 11.0524C95.0586 13.2124 95.2986 13.5724 95.2986 21.7324V75.1324ZM152.988 17.7724C148.068 17.7724 147.708 20.8924 147.468 23.1724C146.628 29.4124 146.388 31.2124 144.948 37.0924C144.588 38.7724 143.748 41.4124 143.748 42.4924C143.748 44.0524 145.428 46.3324 148.188 46.3324C149.148 46.3324 149.748 46.2124 155.508 44.5324C160.428 43.0924 168.468 42.0124 173.148 42.0124C180.348 42.0124 183.228 43.6924 183.228 47.0524C183.228 48.6124 182.748 49.5724 181.428 49.9324C180.228 50.2924 178.188 50.2924 175.188 50.4124C151.668 50.5324 137.988 57.1324 137.988 73.2124C137.988 83.4124 144.468 97.0924 164.268 97.0924C173.388 97.0924 176.748 94.4524 182.508 90.0124C183.348 89.2924 183.828 88.9324 184.548 88.9324C185.388 88.9324 185.508 89.6524 185.868 91.9324C186.228 94.0924 187.068 96.0124 190.068 96.0124C191.628 96.0124 198.468 95.1724 201.588 95.1724C206.148 95.1724 212.268 96.0124 215.148 96.0124C219.348 96.0124 220.068 92.5324 220.068 91.0924C220.068 89.2924 219.828 88.8124 218.028 85.9324C216.828 84.1324 216.468 83.4124 216.468 75.1324V48.8524C216.468 39.2524 216.468 32.8924 210.588 26.6524C205.548 21.2524 196.308 17.2924 182.268 17.2924C177.468 17.2924 169.428 17.6524 164.628 18.4924C163.908 18.6124 159.828 19.4524 158.988 19.4524C158.268 19.4524 157.548 19.0924 156.708 18.6124C155.868 18.1324 154.548 17.7724 153.108 17.7724H152.988ZM182.748 68.1724C182.748 70.9324 181.668 76.5724 175.428 76.5724C172.668 76.5724 168.588 75.1324 168.588 70.6924C168.588 64.0924 177.108 64.0924 179.388 64.0924C182.508 64.0924 182.748 65.5324 182.748 66.9724V68.1724ZM224.572 58.0924C224.572 78.8524 236.692 97.8124 267.892 97.8124C276.892 97.8124 284.092 95.6524 286.252 94.8124C289.372 93.6124 290.212 92.2924 290.572 88.9324C291.172 82.9324 291.532 78.1324 293.092 72.1324C293.332 71.1724 294.892 66.3724 294.892 65.2924C294.892 63.1324 292.972 60.9724 290.812 60.9724C287.812 60.9724 281.692 64.4524 273.772 64.4524C270.532 64.4524 261.412 64.4524 261.412 56.2924C261.412 50.0524 267.892 48.2524 273.052 48.2524C279.652 48.2524 286.852 50.2924 289.612 50.2924C291.652 50.2924 293.692 48.8524 293.692 46.6924C293.692 45.4924 292.492 41.1724 291.892 38.4124C291.172 34.9324 290.212 29.8924 289.972 24.7324C289.852 21.7324 289.612 18.1324 284.812 18.1324C283.492 18.1324 282.652 18.4924 281.932 18.9724C281.332 19.3324 280.732 19.8124 279.652 19.8124C279.292 19.8124 276.772 19.2124 273.412 18.4924C270.172 17.8924 266.092 17.2924 262.492 17.2924C238.972 17.2924 224.572 34.5724 224.572 57.9724V58.0924ZM338.461 5.05236C338.461 2.89236 337.621 0.852362 334.861 0.852362C332.221 0.852362 326.581 1.69236 320.221 1.69236C315.421 1.69236 310.261 0.852362 305.221 0.852362C303.301 0.852362 299.941 1.45236 299.941 5.89236C299.941 7.69236 300.181 8.17236 301.981 11.0524C303.301 13.2124 303.541 13.5724 303.541 21.7324V75.1324C303.541 82.4524 303.301 83.7724 301.981 85.9324C300.181 88.8124 299.941 89.2924 299.941 90.9724C299.941 92.2924 300.421 96.0124 304.861 96.0124C308.821 96.0124 314.341 95.1724 320.821 95.1724C327.541 95.1724 333.421 96.0124 336.181 96.0124C340.141 96.0124 340.981 92.7724 340.981 91.0924C340.981 89.1724 340.501 88.5724 338.941 85.9324C338.101 84.6124 337.501 83.5324 337.501 80.4124C337.501 79.0924 337.381 77.0524 337.381 75.3724C337.381 71.7724 337.381 70.3324 339.181 70.3324C342.901 70.3324 350.341 81.6124 350.341 85.9324C350.341 87.8524 349.381 88.8124 349.381 91.0924C349.381 94.0924 350.701 96.0124 353.821 96.0124C357.301 96.0124 361.021 95.1724 370.021 95.1724C379.501 95.1724 382.741 96.0124 385.981 96.0124C388.261 96.0124 390.541 95.0524 390.541 91.4524C390.541 89.8924 390.181 88.9324 389.341 87.9724C388.021 86.5324 387.181 84.0124 386.341 81.0124C384.061 72.8524 380.461 64.5724 373.861 58.8124C370.861 56.1724 370.141 55.6924 370.141 54.7324C370.141 54.0124 370.981 53.0524 371.101 52.9324C374.821 49.2124 378.181 45.4924 382.141 37.4524C382.741 36.2524 385.021 30.2524 385.741 28.9324C387.421 25.9324 387.901 25.2124 387.901 23.8924C387.901 22.3324 387.181 19.0924 383.221 19.0924C379.981 19.0924 374.101 19.9324 368.221 19.9324C362.461 19.9324 356.221 19.0924 352.621 19.0924C348.181 19.0924 346.861 22.0924 346.861 24.2524C346.861 25.3324 347.821 28.6924 347.821 29.8924C347.821 31.9324 345.421 36.2524 342.901 39.2524C341.461 40.9324 339.901 42.0124 338.701 42.0124C337.861 42.0124 337.381 42.0124 337.381 37.2124V21.4924C337.381 14.1724 338.461 8.65236 338.461 5.17236V5.05236Z" fill="url(#paint0_linear_0_384)"/>
<defs>
<linearGradient id="paint0_linear_0_384" x1="194" y1="-2.82764" x2="194" y2="125.172" gradientUnits="userSpaceOnUse">
<stop offset="0.458333" stop-color="#0B4141"/>
<stop offset="0.458433" stop-color="#0B1F1F"/>
</linearGradient>
</defs>
</svg>
