<svg width="726" height="176" viewBox="0 0 726 176" fill="none" xmlns="http://www.w3.org/2000/svg">
<path d="M39.3891 28.52C39.3891 26.28 39.5491 25.16 41.8691 25.16C45.7091 25.16 47.7891 27.56 49.7091 27.56C51.3091 27.56 52.6691 26.36 52.6691 24.52C52.6691 23.96 51.9491 20.44 51.8691 20.28C51.1491 16.76 50.7491 13.32 50.5091 11.16C49.8691 5.88 49.7091 4.12 45.9491 4.12C42.3491 4.12 40.2691 4.76 27.7891 4.76C17.7091 4.76 11.3891 4.12 8.34906 4.12C5.22906 4.12 4.18906 5.4 3.86906 8.36C3.30906 13.32 2.74906 17.56 1.38906 22.04C1.30906 22.28 0.909062 23.56 0.909062 24.36C0.909062 25.72 2.26906 27.32 4.18906 27.32C6.34906 27.32 7.46906 24.68 11.0691 24.68C14.1891 24.68 14.1891 26.28 14.1891 28.52V53.64C14.1891 58.52 14.0291 59.4 13.1491 60.84C11.9491 62.76 11.7091 63.08 11.7091 64.2C11.7091 65.16 12.1091 67.56 15.0691 67.56C16.9891 67.56 19.0691 67 27.1491 67C35.3891 67 36.8291 67.56 38.5891 67.56C41.3891 67.56 41.8691 65.24 41.8691 64.28C41.8691 63.08 41.6291 62.76 40.4291 60.84C39.5491 59.4 39.5491 59.24 39.3891 53.64V28.52ZM81.2422 14.84C64.1222 14.84 52.5222 24.12 52.5222 41.88C52.5222 59.64 64.0422 69 81.2422 69C98.4422 69 109.962 59.88 109.962 41.8C109.962 24.44 98.6822 14.84 81.3222 14.84H81.2422ZM81.1622 32.2C85.8022 32.2 86.2822 38.04 86.2822 41.48C86.2822 44.76 85.9622 50.84 81.3222 50.84C76.8422 50.84 76.2022 45.08 76.2022 41.8C76.2022 38.76 76.8422 32.2 81.0822 32.2H81.1622ZM136.945 19.56C136.945 17.64 136.065 16.28 133.905 16.28C131.905 16.28 129.425 16.84 125.825 16.84C117.745 16.84 114.865 16.28 112.465 16.28C109.105 16.28 109.025 19.24 109.025 19.56C109.025 20.76 109.505 21.24 110.705 23.16C111.425 24.28 112.145 25.32 113.025 29.4C116.625 46.04 119.665 53.64 122.785 62.12C124.385 66.44 125.585 67.56 127.585 67.56C129.265 67.56 132.545 67 136.465 67C139.745 67 142.785 67.56 144.465 67.56C146.065 67.56 147.185 66.2 148.145 63.8C148.785 62.2 149.585 60.12 150.225 57.64C150.705 55.8 150.945 55.08 151.665 55.08C152.225 55.08 152.545 55.64 153.105 57.56C153.585 59.32 154.145 61 154.705 62.68C155.985 66.6 156.945 67.56 159.185 67.56C161.025 67.56 163.265 67 167.105 67C170.945 67 173.345 67.56 175.185 67.56C177.025 67.56 177.745 66.68 178.785 64.84C182.785 57.8 188.465 38.12 190.065 29.32C190.305 28.2 190.785 25.56 191.585 24.36C193.905 20.92 194.065 20.44 194.065 19.32C194.065 17.48 192.865 16.28 191.265 16.28C190.145 16.28 187.025 16.84 183.345 16.84C179.745 16.84 175.985 16.28 174.705 16.28C173.585 16.28 171.825 17.08 171.825 19.72C171.825 21.24 172.705 22.04 172.705 24.44C172.705 27.08 170.945 36.04 169.665 40.44C169.185 41.88 168.945 42.04 168.545 42.04C167.985 42.04 167.665 41.88 167.185 39.4C166.385 35.72 164.865 26.44 164.865 24.44C164.865 23.96 165.025 22.92 165.265 22.12C165.905 20.2 165.905 19.96 165.905 19.24C165.905 17.56 164.865 16.28 163.105 16.28C162.225 16.28 159.105 16.84 155.585 16.84C151.985 16.84 147.425 16.28 145.665 16.28C144.705 16.28 143.185 17.08 143.185 19.72C143.185 20.36 143.265 20.92 143.585 21.88C143.905 22.84 144.065 23.32 144.065 24.44C144.065 25.48 143.825 30.68 141.425 40.2C141.105 41.48 140.945 42.12 140.305 42.12C139.745 42.12 139.505 41.72 139.265 40.76C138.705 39 136.305 27.64 136.305 23.64C136.305 21.72 136.945 21.08 136.945 19.64V19.56ZM203.315 15.4C200.035 15.4 199.795 17.48 199.635 19C199.075 23.16 198.915 24.36 197.955 28.28C197.715 29.4 197.155 31.16 197.155 31.88C197.155 32.92 198.275 34.44 200.115 34.44C200.755 34.44 201.155 34.36 204.995 33.24C208.275 32.28 213.635 31.56 216.755 31.56C221.555 31.56 223.475 32.68 223.475 34.92C223.475 35.96 223.155 36.6 222.275 36.84C221.475 37.08 220.115 37.08 218.115 37.16C202.435 37.24 193.315 41.64 193.315 52.36C193.315 59.16 197.635 68.28 210.835 68.28C216.915 68.28 219.155 66.52 222.995 63.56C223.555 63.08 223.875 62.84 224.355 62.84C224.915 62.84 224.995 63.32 225.235 64.84C225.475 66.28 226.035 67.56 228.035 67.56C229.075 67.56 233.635 67 235.715 67C238.755 67 242.835 67.56 244.755 67.56C247.555 67.56 248.035 65.24 248.035 64.28C248.035 63.08 247.875 62.76 246.675 60.84C245.875 59.64 245.635 59.16 245.635 53.64V36.12C245.635 29.72 245.635 25.48 241.715 21.32C238.355 17.72 232.195 15.08 222.835 15.08C219.635 15.08 214.275 15.32 211.075 15.88C210.595 15.96 207.875 16.52 207.315 16.52C206.835 16.52 206.355 16.28 205.795 15.96C205.235 15.64 204.355 15.4 203.395 15.4H203.315ZM223.155 49C223.155 50.84 222.435 54.6 218.275 54.6C216.435 54.6 213.715 53.64 213.715 50.68C213.715 46.28 219.395 46.28 220.915 46.28C222.995 46.28 223.155 47.24 223.155 48.2V49ZM283.518 16.2C280.558 16.2 277.678 17.08 275.358 19C273.998 20.12 273.758 20.12 273.278 20.12C272.718 20.12 272.638 19.88 272.078 18.04C271.598 16.36 270.478 16.28 269.838 16.28C268.798 16.28 267.358 16.84 263.358 16.84C262.158 16.84 256.158 16.28 254.798 16.28C251.598 16.28 251.518 19 251.518 19.64C251.518 20.68 251.678 21.32 252.878 23C253.838 24.36 253.918 25 253.918 30.2V53.64C253.918 58.52 253.758 59.4 252.878 60.84C251.678 62.76 251.518 63.08 251.518 64.2C251.518 65.08 251.838 67.56 254.798 67.56C256.958 67.56 260.958 67 266.078 67C270.958 67 274.958 67.56 276.798 67.56C279.598 67.56 279.998 65.16 279.998 64.28C279.998 63.08 279.838 62.76 278.638 60.84C277.918 59.64 277.598 59.16 277.598 53.64V49.48C277.598 45.24 276.878 44.04 276.878 42.36C276.878 39.8 278.878 37.88 281.438 37.88C282.158 37.88 284.718 38.28 285.438 38.28C287.438 38.28 288.078 36.52 288.078 35.56C287.918 33.56 287.598 31.64 287.598 29.64C287.598 23.96 288.078 21.56 288.078 19.72C288.078 16.2 285.198 16.2 283.598 16.2H283.518ZM345.697 8.12C345.697 5.88 345.697 4.12 342.897 4.12C340.977 4.12 337.217 4.68 334.257 4.68C331.377 4.68 327.377 4.12 324.337 4.12C322.097 4.12 320.817 5.24 320.817 7.48C320.817 8.68 321.057 9.08 322.177 10.92C322.737 11.8 323.217 13 323.217 15.32C323.217 17 322.257 17.24 321.857 17.24C321.537 17.24 320.737 16.92 319.377 16.52C317.857 16.12 315.937 15.56 312.177 15.56C305.137 15.56 299.057 18.6 295.537 23.4C291.937 28.28 290.257 34.36 290.257 41.8C290.257 49.48 291.937 55.16 295.377 60.12C298.897 65.24 304.977 68.44 311.857 68.44C318.417 68.44 320.897 65.64 322.577 63.96C323.377 63.16 323.857 62.52 324.417 62.52C325.297 62.52 325.377 63.32 325.537 64.76C325.777 66.76 326.897 67.56 328.417 67.56C329.617 67.56 331.777 67 335.617 67C338.817 67 343.377 67.56 344.897 67.56C347.777 67.56 348.177 65.08 348.177 64.28C348.177 63.08 347.937 62.76 346.737 60.84C345.857 59.4 345.697 59.24 345.697 53.64V8.12ZM323.137 43.72C323.137 46.52 322.817 50.84 319.057 50.84C314.657 50.84 313.937 45.4 313.937 42.04C313.937 38.6 314.417 32.92 319.057 32.92C322.737 32.92 323.137 36.6 323.137 39.48V43.72ZM395.838 0.199997C391.118 0.199997 382.878 0.999996 382.878 6.44C382.878 11.4 388.558 12.6 395.838 12.6C402.318 12.6 408.718 11.72 408.718 6.44C408.718 0.759995 399.758 0.199997 395.918 0.199997H395.838ZM383.918 53.64C383.918 58.52 383.838 59.4 382.878 60.84C381.598 62.76 381.518 63.08 381.518 64.2C381.518 65 381.838 67.56 384.798 67.56C386.958 67.56 389.758 67 396.078 67C400.958 67 405.038 67.56 406.798 67.56C409.518 67.56 409.998 65.4 409.998 64.28C409.998 63 409.678 62.6 408.638 60.84C407.918 59.64 407.598 59.16 407.598 53.64V30.2C407.598 24.68 407.838 24.2 408.638 23C409.838 21.16 409.998 20.84 409.998 19.56C409.998 18.44 409.678 16.28 406.638 16.28C404.158 16.28 400.718 17.24 396.398 17.24C391.198 17.24 388.158 16.28 384.798 16.28C382.718 16.28 381.518 17.56 381.518 19.64C381.518 20.84 381.758 21.16 382.878 23C383.838 24.44 383.918 25.16 383.918 30.2V53.64ZM445.709 59.64C445.709 65.16 445.709 67.56 449.309 67.56C451.789 67.56 454.669 67 457.309 67C461.469 67 465.949 67.56 467.469 67.56C470.189 67.56 470.669 65.24 470.669 64.28C470.669 63.08 470.509 62.76 469.309 60.84C468.349 59.32 468.269 58.68 468.269 53.64V35.24C468.269 32.84 468.189 25.56 464.429 21.08C460.989 17 455.709 15.08 450.429 15.08C447.309 15.08 442.909 15.48 438.749 19.64C437.149 21.24 436.749 21.48 436.269 21.48C435.549 21.48 435.469 20.76 435.389 19.56C435.229 18.28 434.989 16.28 432.429 16.28C431.309 16.28 427.949 16.84 425.149 16.84C422.349 16.84 419.629 16.28 416.829 16.28C413.629 16.28 413.549 18.84 413.549 19.64C413.549 20.84 413.789 21.16 414.909 23C415.789 24.44 415.949 25 415.949 30.2V53.64C415.949 58.52 415.789 59.4 414.909 60.84C413.709 62.76 413.549 63.08 413.549 64.2C413.549 65.08 413.869 67.56 416.829 67.56C419.069 67.56 423.869 67 427.469 67C432.109 67 436.029 67.56 437.709 67.56C440.349 67.56 440.909 65.4 440.909 64.28C440.909 63 440.589 62.6 439.549 60.84C438.829 59.64 438.509 59.16 438.509 53.64V39.32C438.509 38.6 438.269 37.48 438.269 36.92C438.269 34.84 439.549 33.72 441.789 33.72C445.709 33.72 445.709 36.92 445.709 41.08V59.64ZM522.903 3.08C518.423 3.08 512.183 3.88 512.183 8.44C512.183 13.32 518.263 13.72 522.903 13.72C527.543 13.72 533.623 13.24 533.623 8.44C533.623 4.04 528.023 3.08 522.983 3.08H522.903ZM533.783 30.12C533.783 24.44 534.023 24.12 534.743 22.92C535.943 21 536.183 20.52 536.183 19.24C536.183 17.56 535.223 16.2 533.063 16.2C530.583 16.2 527.863 17.24 522.183 17.24C518.663 17.24 517.303 17.24 514.103 16.76C510.823 16.28 509.943 15.4 509.463 14.12C508.983 12.92 508.263 6.68 508.103 6.04C507.623 3.96 504.983 3.72 503.863 3.72C502.423 3.72 501.863 4.76 501.063 4.76C500.503 4.76 498.023 3.72 493.863 3.72C483.463 3.72 475.383 10.04 475.383 24.28C475.383 25.88 475.703 30.6 475.783 32.44C475.943 36.28 476.183 43 476.183 45.8V53.64C476.183 59.16 475.943 59.56 475.143 60.84C474.423 61.96 473.783 62.84 473.783 64.2C473.783 66.2 474.983 67.56 476.983 67.56C480.423 67.56 484.103 67 487.703 67C491.463 67 496.023 67.56 497.943 67.56C500.823 67.56 501.143 65.16 501.143 64.28C501.143 63 500.743 62.2 500.103 61.32C499.623 60.68 499.063 59.72 498.903 57.64C498.743 55.96 498.743 54.28 498.743 53.48C498.743 51.4 498.903 49.8 501.383 49.8C502.263 49.8 503.143 49.96 504.023 49.96C505.703 49.96 507.143 48.84 507.143 47.08C507.143 46.28 506.583 42.36 506.583 39.96C506.583 38.2 507.143 35.24 507.143 33.64C507.143 32.28 506.343 30.92 504.823 30.92C503.783 30.92 502.663 31.24 501.623 31.24C499.303 31.24 497.143 30.36 497.143 27.8C497.143 25.96 498.583 24.12 501.783 24.12C503.863 24.12 506.183 25.08 507.943 25.96C510.103 27.08 510.103 26.92 510.103 30.12V53.64C510.103 58.52 509.943 59.4 509.063 60.84C507.863 62.76 507.623 63.16 507.623 64.28C507.623 65.16 508.023 67.56 510.903 67.56C513.463 67.56 517.783 67 522.183 67C526.823 67 530.983 67.56 532.903 67.56C535.703 67.56 536.183 65.24 536.183 64.28C536.183 63.08 536.023 62.76 534.823 60.84C534.103 59.64 533.783 59.16 533.783 53.64V30.12ZM571.881 59.64C571.881 65.16 571.881 67.56 575.481 67.56C577.961 67.56 580.841 67 583.481 67C587.641 67 592.121 67.56 593.641 67.56C596.361 67.56 596.841 65.24 596.841 64.28C596.841 63.08 596.681 62.76 595.481 60.84C594.521 59.32 594.441 58.68 594.441 53.64V35.24C594.441 32.84 594.361 25.56 590.601 21.08C587.161 17 581.881 15.08 576.601 15.08C573.481 15.08 569.081 15.48 564.921 19.64C563.321 21.24 562.921 21.48 562.441 21.48C561.721 21.48 561.641 20.76 561.561 19.56C561.401 18.28 561.161 16.28 558.601 16.28C557.481 16.28 554.121 16.84 551.321 16.84C548.521 16.84 545.801 16.28 543.001 16.28C539.801 16.28 539.721 18.84 539.721 19.64C539.721 20.84 539.961 21.16 541.081 23C541.961 24.44 542.121 25 542.121 30.2V53.64C542.121 58.52 541.961 59.4 541.081 60.84C539.881 62.76 539.721 63.08 539.721 64.2C539.721 65.08 540.041 67.56 543.001 67.56C545.241 67.56 550.041 67 553.641 67C558.281 67 562.201 67.56 563.881 67.56C566.521 67.56 567.081 65.4 567.081 64.28C567.081 63 566.761 62.6 565.721 60.84C565.001 59.64 564.681 59.16 564.681 53.64V39.32C564.681 38.6 564.441 37.48 564.441 36.92C564.441 34.84 565.721 33.72 567.961 33.72C571.881 33.72 571.881 36.92 571.881 41.08V59.64ZM614.275 0.199997C609.555 0.199997 601.315 0.999996 601.315 6.44C601.315 11.4 606.995 12.6 614.275 12.6C620.755 12.6 627.155 11.72 627.155 6.44C627.155 0.759995 618.195 0.199997 614.355 0.199997H614.275ZM602.355 53.64C602.355 58.52 602.275 59.4 601.315 60.84C600.035 62.76 599.955 63.08 599.955 64.2C599.955 65 600.275 67.56 603.235 67.56C605.395 67.56 608.195 67 614.515 67C619.395 67 623.475 67.56 625.235 67.56C627.955 67.56 628.435 65.4 628.435 64.28C628.435 63 628.115 62.6 627.075 60.84C626.355 59.64 626.035 59.16 626.035 53.64V30.2C626.035 24.68 626.275 24.2 627.075 23C628.275 21.16 628.435 20.84 628.435 19.56C628.435 18.44 628.115 16.28 625.075 16.28C622.595 16.28 619.155 17.24 614.835 17.24C609.635 17.24 606.595 16.28 603.235 16.28C601.155 16.28 599.955 17.56 599.955 19.64C599.955 20.84 600.195 21.16 601.315 23C602.275 24.44 602.355 25.16 602.355 30.2V53.64ZM658.547 38.28C658.547 37.16 658.627 35.32 660.867 35.32C661.587 35.32 664.147 35.8 664.867 35.8C667.667 35.8 667.747 33.32 667.747 32.44C667.747 31.48 667.507 26.76 667.507 25.72C667.507 24.92 667.747 21 667.747 20.12C667.747 18.28 666.707 17.08 664.627 17.08C664.067 17.08 661.347 17.4 660.707 17.4C658.787 17.4 658.547 16.12 658.547 14.04V6.92C658.547 6.04 658.467 4.2 655.427 4.2C654.547 4.2 653.667 5.08 652.467 6.36C648.227 11.08 643.267 17.08 636.387 17.08C635.507 17.08 633.347 16.92 632.867 16.92C632.387 16.92 630.067 17.08 630.067 19.72C630.067 21.88 630.387 23.96 630.387 26.12C630.387 28.44 630.067 31.08 630.067 32.68C630.067 34.92 631.587 35.32 632.227 35.32C632.467 35.32 633.667 35.08 634.147 35.08C635.347 35.08 635.667 36.36 635.667 39C635.667 40.76 635.027 49.72 635.027 51.8C635.027 64.12 642.707 68.76 654.307 68.76C657.427 68.76 661.827 68.36 664.787 67.32C667.267 66.44 667.427 64.92 667.507 63.56C667.667 60.36 668.147 57.08 668.707 54.28C669.107 52.28 669.667 50.6 669.667 49.72C669.667 48.52 668.387 47.4 666.787 47.4C665.747 47.4 662.547 48.44 661.507 48.44C658.947 48.44 658.547 46.12 658.547 44.04V38.28ZM668.4 19.72C668.4 21 668.72 21.48 669.92 22.84C670.96 24.12 671.52 24.92 672.48 29.72C674.24 38.52 678.56 50.92 683.36 58.6C684.16 59.88 684.4 60.52 684.72 61.16C685.04 61.72 685.04 62.12 685.04 62.68C685.04 63.96 684 64.44 682.88 64.44C679.52 64.44 672.64 61.88 671.76 61.88C671.12 61.88 669.6 62.44 669.6 64.36C669.6 65 669.92 68.44 669.92 69.16C669.92 69.96 669.6 73.8 669.6 74.68C669.6 76.92 670.64 77.72 671.76 78.12C673.84 78.84 681.36 79.96 688.48 79.96C692.48 79.96 703.36 79.96 709.68 69.48C716.24 58.6 720.4 37.56 720.96 34.04C722.32 25.72 722.88 24.76 723.76 23.32C725.36 20.76 725.6 20.52 725.6 19.4C725.6 18.12 724.56 16.28 722.56 16.28C721.6 16.28 718.4 16.84 715.2 16.84C711.6 16.84 707.2 16.28 705.92 16.28C704.16 16.28 702.96 17.72 702.96 19.72C702.96 21.56 704 22.6 704 25.48C704 28.44 703.12 35.08 701.52 41.08C700.96 43.16 700.64 43.64 700.08 43.64C699.36 43.64 699.04 43.24 698.24 40.28C696.24 33 695.84 26.6 695.84 24.6C695.84 24.2 695.84 23.4 696 22.92C696.72 20.68 696.8 20.44 696.8 19.72C696.8 18.44 696.24 16.28 693.76 16.28C691.52 16.28 688.88 16.84 684.4 16.84C679.36 16.84 674.4 16.28 671.6 16.28C669.76 16.28 668.4 17.48 668.4 19.64V19.72ZM93.9006 111.4C90.6206 111.4 90.3806 113.48 90.2206 115C89.6606 119.16 89.5006 120.36 88.5406 124.28C88.3006 125.4 87.7406 127.16 87.7406 127.88C87.7406 128.92 88.8606 130.44 90.7006 130.44C91.3406 130.44 91.7406 130.36 95.5806 129.24C98.8606 128.28 104.221 127.56 107.341 127.56C112.141 127.56 114.061 128.68 114.061 130.92C114.061 131.96 113.741 132.6 112.861 132.84C112.061 133.08 110.701 133.08 108.701 133.16C93.0206 133.24 83.9006 137.64 83.9006 148.36C83.9006 155.16 88.2206 164.28 101.421 164.28C107.501 164.28 109.741 162.52 113.581 159.56C114.141 159.08 114.461 158.84 114.941 158.84C115.501 158.84 115.581 159.32 115.821 160.84C116.061 162.28 116.621 163.56 118.621 163.56C119.661 163.56 124.221 163 126.301 163C129.341 163 133.421 163.56 135.341 163.56C138.141 163.56 138.621 161.24 138.621 160.28C138.621 159.08 138.461 158.76 137.261 156.84C136.461 155.64 136.221 155.16 136.221 149.64V132.12C136.221 125.72 136.221 121.48 132.301 117.32C128.941 113.72 122.781 111.08 113.421 111.08C110.221 111.08 104.861 111.32 101.661 111.88C101.181 111.96 98.4606 112.52 97.9006 112.52C97.4206 112.52 96.9406 112.28 96.3806 111.96C95.8206 111.64 94.9406 111.4 93.9806 111.4H93.9006ZM113.741 145C113.741 146.84 113.021 150.6 108.861 150.6C107.021 150.6 104.301 149.64 104.301 146.68C104.301 142.28 109.981 142.28 111.501 142.28C113.581 142.28 113.741 143.24 113.741 144.2V145ZM174.264 155.64C174.264 161.16 174.264 163.56 177.864 163.56C180.344 163.56 183.224 163 185.864 163C190.024 163 194.504 163.56 196.024 163.56C198.744 163.56 199.224 161.24 199.224 160.28C199.224 159.08 199.064 158.76 197.864 156.84C196.904 155.32 196.824 154.68 196.824 149.64V131.24C196.824 128.84 196.744 121.56 192.984 117.08C189.544 113 184.264 111.08 178.984 111.08C175.864 111.08 171.464 111.48 167.304 115.64C165.704 117.24 165.304 117.48 164.824 117.48C164.104 117.48 164.024 116.76 163.944 115.56C163.784 114.28 163.544 112.28 160.984 112.28C159.864 112.28 156.504 112.84 153.704 112.84C150.904 112.84 148.184 112.28 145.384 112.28C142.184 112.28 142.104 114.84 142.104 115.64C142.104 116.84 142.344 117.16 143.464 119C144.344 120.44 144.504 121 144.504 126.2V149.64C144.504 154.52 144.344 155.4 143.464 156.84C142.264 158.76 142.104 159.08 142.104 160.2C142.104 161.08 142.424 163.56 145.384 163.56C147.624 163.56 152.424 163 156.024 163C160.664 163 164.584 163.56 166.264 163.56C168.904 163.56 169.464 161.4 169.464 160.28C169.464 159 169.144 158.6 168.104 156.84C167.384 155.64 167.064 155.16 167.064 149.64V135.32C167.064 134.6 166.824 133.48 166.824 132.92C166.824 130.84 168.104 129.72 170.344 129.72C174.264 129.72 174.264 132.92 174.264 137.08V155.64ZM257.298 104.12C257.298 101.88 257.298 100.12 254.498 100.12C252.578 100.12 248.818 100.68 245.858 100.68C242.978 100.68 238.978 100.12 235.938 100.12C233.698 100.12 232.418 101.24 232.418 103.48C232.418 104.68 232.658 105.08 233.778 106.92C234.338 107.8 234.818 109 234.818 111.32C234.818 113 233.858 113.24 233.458 113.24C233.138 113.24 232.338 112.92 230.978 112.52C229.458 112.12 227.538 111.56 223.778 111.56C216.738 111.56 210.658 114.6 207.138 119.4C203.538 124.28 201.858 130.36 201.858 137.8C201.858 145.48 203.538 151.16 206.978 156.12C210.498 161.24 216.578 164.44 223.458 164.44C230.018 164.44 232.498 161.64 234.178 159.96C234.978 159.16 235.458 158.52 236.018 158.52C236.898 158.52 236.978 159.32 237.138 160.76C237.378 162.76 238.498 163.56 240.018 163.56C241.218 163.56 243.378 163 247.218 163C250.418 163 254.978 163.56 256.498 163.56C259.378 163.56 259.778 161.08 259.778 160.28C259.778 159.08 259.538 158.76 258.338 156.84C257.458 155.4 257.298 155.24 257.298 149.64V104.12ZM234.738 139.72C234.738 142.52 234.418 146.84 230.658 146.84C226.258 146.84 225.538 141.4 225.538 138.04C225.538 134.6 226.018 128.92 230.658 128.92C234.338 128.92 234.738 132.6 234.738 135.48V139.72ZM295.519 158.68C295.519 160.76 295.519 163.88 299.039 163.88C300.639 163.88 301.279 163 301.839 162.04C302.399 161.08 302.959 160.28 304.319 160.28C305.199 160.28 305.679 160.52 309.519 162.36C312.559 163.8 318.239 164.76 323.039 164.76C340.719 164.76 350.799 154.6 350.799 137.08C350.799 123.24 342.159 111.56 327.519 111.56C322.399 111.56 320.399 113.08 319.119 113.08C317.999 113.08 317.999 111.8 317.999 110.92C317.999 108.28 318.239 105.72 318.239 103.08C318.239 101.48 317.439 100.12 315.679 100.12C314.479 100.12 310.719 100.68 307.039 100.68C303.759 100.68 299.999 100.12 296.639 100.12C295.119 100.12 293.119 100.68 293.119 103.48C293.119 105 293.679 105.64 294.479 106.92C295.359 108.36 295.519 108.44 295.519 114.04V158.68ZM318.079 136.92C318.079 132.68 318.079 128.92 321.999 128.92C326.479 128.92 327.039 135.08 327.039 138.28C327.039 141.4 326.479 147.08 322.239 147.08C318.799 147.08 318.079 143.72 318.079 140.92V136.92ZM403.583 142.28C406.463 142.28 407.503 141.24 407.503 137C407.503 120.04 397.903 111.08 381.183 111.08C361.183 111.08 353.343 123.48 353.343 138.04C353.343 156.92 365.903 164.76 383.423 164.76C389.983 164.76 396.463 163.72 398.783 163.16C401.583 162.52 402.383 161.72 402.703 160.04C403.183 157.64 403.583 154.84 404.223 152.76C404.943 150.44 405.503 148.68 405.503 148.04C405.503 147.24 404.783 145.96 403.183 145.96C402.463 145.96 399.903 146.6 398.303 146.92C393.423 147.88 390.863 148.12 386.943 148.12C384.063 148.12 377.023 147.64 377.023 143.32C377.023 142.28 377.743 142.28 379.503 142.28H403.583ZM378.943 133.4C376.863 133.4 376.543 132.84 376.543 131.72C376.543 128.6 378.703 126.36 381.823 126.36C385.023 126.36 387.023 128.44 387.023 131.64C387.023 132.92 386.463 133.4 383.823 133.4H378.943ZM407.501 115.72C407.501 117 407.821 117.48 409.021 118.84C410.061 120.12 410.621 120.92 411.581 125.72C413.341 134.52 417.661 146.92 422.461 154.6C423.261 155.88 423.501 156.52 423.821 157.16C424.141 157.72 424.141 158.12 424.141 158.68C424.141 159.96 423.101 160.44 421.981 160.44C418.621 160.44 411.741 157.88 410.861 157.88C410.221 157.88 408.701 158.44 408.701 160.36C408.701 161 409.021 164.44 409.021 165.16C409.021 165.96 408.701 169.8 408.701 170.68C408.701 172.92 409.741 173.72 410.861 174.12C412.941 174.84 420.461 175.96 427.581 175.96C431.581 175.96 442.461 175.96 448.781 165.48C455.341 154.6 459.501 133.56 460.061 130.04C461.421 121.72 461.981 120.76 462.861 119.32C464.461 116.76 464.701 116.52 464.701 115.4C464.701 114.12 463.661 112.28 461.661 112.28C460.701 112.28 457.501 112.84 454.301 112.84C450.701 112.84 446.301 112.28 445.021 112.28C443.261 112.28 442.061 113.72 442.061 115.72C442.061 117.56 443.101 118.6 443.101 121.48C443.101 124.44 442.221 131.08 440.621 137.08C440.061 139.16 439.741 139.64 439.181 139.64C438.461 139.64 438.141 139.24 437.341 136.28C435.341 129 434.941 122.6 434.941 120.6C434.941 120.2 434.941 119.4 435.101 118.92C435.821 116.68 435.901 116.44 435.901 115.72C435.901 114.44 435.341 112.28 432.861 112.28C430.621 112.28 427.981 112.84 423.501 112.84C418.461 112.84 413.501 112.28 410.701 112.28C408.861 112.28 407.501 113.48 407.501 115.64V115.72ZM492.766 110.84C475.646 110.84 464.046 120.12 464.046 137.88C464.046 155.64 475.566 165 492.766 165C509.966 165 521.486 155.88 521.486 137.8C521.486 120.44 510.206 110.84 492.846 110.84H492.766ZM492.686 128.2C497.326 128.2 497.806 134.04 497.806 137.48C497.806 140.76 497.486 146.84 492.846 146.84C488.366 146.84 487.726 141.08 487.726 137.8C487.726 134.76 488.366 128.2 492.606 128.2H492.686ZM556.686 155.64C556.686 161.16 556.686 163.56 560.286 163.56C562.766 163.56 565.646 163 568.286 163C572.446 163 576.926 163.56 578.446 163.56C581.166 163.56 581.646 161.24 581.646 160.28C581.646 159.08 581.486 158.76 580.286 156.84C579.326 155.32 579.246 154.68 579.246 149.64V131.24C579.246 128.84 579.166 121.56 575.406 117.08C571.966 113 566.686 111.08 561.406 111.08C558.286 111.08 553.886 111.48 549.726 115.64C548.126 117.24 547.726 117.48 547.246 117.48C546.526 117.48 546.446 116.76 546.366 115.56C546.206 114.28 545.966 112.28 543.406 112.28C542.286 112.28 538.926 112.84 536.126 112.84C533.326 112.84 530.606 112.28 527.806 112.28C524.606 112.28 524.526 114.84 524.526 115.64C524.526 116.84 524.766 117.16 525.886 119C526.766 120.44 526.926 121 526.926 126.2V149.64C526.926 154.52 526.766 155.4 525.886 156.84C524.686 158.76 524.526 159.08 524.526 160.2C524.526 161.08 524.846 163.56 527.806 163.56C530.046 163.56 534.846 163 538.446 163C543.086 163 547.006 163.56 548.686 163.56C551.326 163.56 551.886 161.4 551.886 160.28C551.886 159 551.566 158.6 550.526 156.84C549.806 155.64 549.486 155.16 549.486 149.64V135.32C549.486 134.6 549.246 133.48 549.246 132.92C549.246 130.84 550.526 129.72 552.766 129.72C556.686 129.72 556.686 132.92 556.686 137.08V155.64ZM639.72 104.12C639.72 101.88 639.72 100.12 636.92 100.12C635 100.12 631.24 100.68 628.28 100.68C625.4 100.68 621.4 100.12 618.36 100.12C616.12 100.12 614.84 101.24 614.84 103.48C614.84 104.68 615.08 105.08 616.2 106.92C616.76 107.8 617.24 109 617.24 111.32C617.24 113 616.28 113.24 615.88 113.24C615.56 113.24 614.76 112.92 613.4 112.52C611.88 112.12 609.96 111.56 606.2 111.56C599.16 111.56 593.08 114.6 589.56 119.4C585.96 124.28 584.28 130.36 584.28 137.8C584.28 145.48 585.96 151.16 589.4 156.12C592.92 161.24 599 164.44 605.88 164.44C612.44 164.44 614.92 161.64 616.6 159.96C617.4 159.16 617.88 158.52 618.44 158.52C619.32 158.52 619.4 159.32 619.56 160.76C619.8 162.76 620.92 163.56 622.44 163.56C623.64 163.56 625.8 163 629.64 163C632.84 163 637.4 163.56 638.92 163.56C641.8 163.56 642.2 161.08 642.2 160.28C642.2 159.08 641.96 158.76 640.76 156.84C639.88 155.4 639.72 155.24 639.72 149.64V104.12ZM617.16 139.72C617.16 142.52 616.84 146.84 613.08 146.84C608.68 146.84 607.96 141.4 607.96 138.04C607.96 134.6 608.44 128.92 613.08 128.92C616.76 128.92 617.16 132.6 617.16 135.48V139.72Z" fill="white"/>
</svg>
